<?xml version="1.0" encoding="UTF-8" standalone="no"?><!DOCTYPE svg PUBLIC "-//W3C//DTD SVG 1.1//EN" "http://www.w3.org/Graphics/SVG/1.1/DTD/svg11.dtd"><svg width="100%" height="100%" viewBox="0 0 842 426" version="1.1" xmlns="http://www.w3.org/2000/svg" xmlns:xlink="http://www.w3.org/1999/xlink" xml:space="preserve" xmlns:serif="http://www.serif.com/" style="fill-rule:evenodd;clip-rule:evenodd;stroke-linejoin:round;stroke-miterlimit:2;"><g id="kuschel-2" serif:id="kuschel 2"><path d="M42.548,71.72l-8.795,2.9l0.4,38.467c-0,47.131 0.799,63.99 2.598,65.621c2.799,2.538 13.394,3.626 16.792,1.813c1.599,-0.906 1.999,-7.795 1.199,-25.378l-1.199,-23.928l8.995,6.707c4.798,3.625 15.193,9.607 22.789,13.414c7.596,3.807 18.991,9.97 25.188,13.777c6.197,3.807 12.593,6.888 14.193,6.888c4.397,0 7.196,-4.169 6.596,-9.426c-0.599,-6.526 -11.394,-14.139 -39.98,-28.46c-12.793,-6.526 -23.188,-12.145 -23.188,-12.689c-0,-1.45 38.381,-20.484 54.173,-27.01c8.995,-3.626 13.593,-6.526 14.393,-9.245c1.199,-4.351 -3.199,-9.245 -8.396,-9.245c-3.798,-0 -54.573,20.665 -66.567,27.191l-7.596,3.988l-0.2,-8.373c-0,-13.233 -0.8,-18.492 -1.4,-22.48l-1.399,-7.614l-8.596,3.082Z" style="fill-rule:nonzero;"/><path d="M504.124,73.908c-8.333,0.122 -10.515,9.155 -10.447,13.681c0.27,18.178 -0.576,71.777 -0,81.138c0.289,4.711 15.196,5.144 19.387,2.065c0.76,-14.944 1.146,-51.019 2.028,-51.439c1.103,-0.28 13.764,-0.31 29.34,-0.673c15.452,-0.36 29.585,-0.553 32.519,-0.7c3.128,-0.157 3.239,1.056 3.403,4.309c0.365,7.274 1.283,39.362 1.801,50.528c0.007,0.153 8.579,-0.023 16.211,-0c3.175,0.01 1.159,-50.889 1.379,-56.207c0,-9.376 -0.22,-16.005 -5.514,-16.565c-3.088,-0.28 -31.783,0.756 -42.554,1.015l-35.264,0.94c0,0 0.752,-15.178 0.407,-19.201c-0.616,-7.199 -4.507,-9.011 -12.696,-8.891Z" style="fill-rule:nonzero;"/><path d="M743.01,75.321c-2.24,1.358 -3.065,7.472 -4.179,29.457c-1.479,32.312 -1.455,53.482 0.421,60.929c1.6,6.441 8.358,6.337 16.603,6.301c24.746,-0.109 52.017,1.583 52.211,-1.314c1.261,-18.788 -14.256,-16.85 -49.313,-17.191c-0.461,-7.256 -0.575,-17.013 -0.284,-25.275c1.443,-28.996 0.979,-46.905 -1.63,-50.439c-2.958,-3.996 -9.807,-4.83 -13.829,-2.468Z" style="fill-rule:nonzero;"/><path d="M146.261,80.144c-1.32,19.34 -3.462,46.373 -3.661,72.925c0,19.616 4.858,19.72 25.543,19.748c13.335,0.018 54.422,-0 54.422,-0c3.171,3.765 12.984,2.576 15.956,-0c3.171,-2.576 2.974,-5.944 1.983,-36.458c-0.594,-18.428 -2.871,-48.653 -4.06,-51.625c-1.109,-11.798 -9.511,-10.898 -13.276,-7.134c-1.981,1.982 -1.29,21.309 -0.101,44.889c0.793,16.248 1.387,29.92 1.189,30.316c-0.396,0.396 -12.671,0.645 -27.97,1.188c-13.235,0.469 -21.234,0.563 -27.332,0.661c-5.766,0.093 -7.262,-2.233 -6.638,-35.336c0.326,-17.334 0.113,-31.44 0.283,-40.531c0.096,-5.094 -7.1,-4.844 -7.496,-4.844c-0.396,-0 -8.359,-0.875 -8.842,6.201Z" style="fill-rule:nonzero;"/><path d="M385.062,75.091c-12.156,0.701 -16.364,1.87 -18,4.909c-1.403,2.571 -1.403,14.961 -0,32.026c1.169,15.429 2.337,34.364 2.571,42.079c0.702,12.156 2.436,16.374 7.579,18.712c3.273,1.636 23.467,0.234 46.005,-0c47.115,-0.489 51.333,2.134 51.333,-15.165c0,-10.987 -1.97,-16.135 -9.092,-15.48c-4.593,0.423 -7.524,4.183 -7.578,12.081c-0.008,1.049 -30.477,0.35 -44.926,0.577l-24.269,0.224l-1.753,-30.872c-0.935,-16.598 -1.402,-30.39 -0.935,-30.857c0.468,-0.234 17.767,-1.169 38.806,-2.104l37.075,-1.273l0.733,14.11c0.239,9.465 0.946,11.154 7.305,11.375c6.001,0.209 6.618,-9.709 7.212,-18.535c0.493,-7.34 1.775,-13.61 -1.409,-18.174c-3.507,-4.909 -5.097,-5.27 -39.461,-4.802c-19.637,0.233 -42.547,0.701 -51.196,1.169Z" style="fill-rule:nonzero;"/><path d="M345.446,75.606c-4.977,-3.513 -86.834,-2.156 -88.211,-1.698c-1.835,0.689 -2.363,13.031 -2.363,20.831c0,14.913 2.065,17.207 24.089,26.383c8.948,3.671 24.548,10.783 34.872,15.601c17.895,8.488 18.812,9.406 19.042,16.289c0.137,4.11 -0.215,3.528 -4.889,3.534c-7.144,0.01 -18.054,0.344 -30.972,0.523c-11.089,0.153 -22.465,0.803 -22.483,0.517c-0.183,-2.885 0.281,-7.407 -2.031,-10.292c-3.179,-3.97 -10.871,-3.891 -14.106,0.844c-2.394,3.503 -2.333,10.428 -2.333,17.06c0,4.752 -0.058,7.931 0.923,7.931c2.223,0 16.237,0.126 52.731,-0.312l43.448,0.148l-0.512,-15.824c-0.258,-13.946 -0.964,-22.942 -15.647,-29.595c-6.653,-2.982 -23.4,-10.782 -37.395,-16.977c-13.765,-6.423 -25.465,-12.618 -25.924,-13.994c-0.406,-5.307 0.226,-6.754 8.473,-7.207c7.028,-0.385 50.623,0.939 50.623,0.939l0.553,10.856c0.688,8.947 2.192,10.094 6.423,10.094c5.277,0 5.965,-1.147 7.801,-15.829c2.064,-14.224 1.788,-17.069 -2.112,-19.822Z" style="fill-rule:nonzero;"/><path d="M614.322,79.888c-3.594,4.056 -4.043,8.788 -3.369,42.817c0.674,30.648 1.572,38.987 4.268,41.916c4.043,3.831 26.057,6.986 68.064,9.014c31,1.803 35.268,0.676 35.268,-9.239c0,-7.212 -3.369,-8.564 -20.891,-9.014c-35.717,-0.902 -62.449,-3.606 -65.594,-6.986c-1.797,-1.803 -3.369,-7.212 -3.369,-11.719l-0,-8.563l35.717,1.126c19.543,0.451 38.188,0.451 41.333,-0.45c7.188,-1.803 10.558,-12.169 10.782,-33.128c0.225,-11.042 -0.674,-14.648 -3.818,-17.127c-2.921,-2.253 -15.276,-2.929 -49.196,-2.929c-42.006,-0 -45.601,0.225 -49.195,4.282Zm84.014,13.746l-0,18.029l-69.637,-0l-0,-7.662c-0,-9.465 0.449,-9.465 41.108,-10.141l28.529,-0.226Z" style="fill-rule:nonzero;"/></g><g><path d="M614.321,216.847c-7.338,7.721 -10.122,12.582 -9.11,15.727c2.531,7.435 10.122,5.719 18.726,-4.575c16.954,-19.73 8.098,-30.023 -9.616,-11.152Z" style="fill-rule:nonzero;"/><path d="M541.727,224.057c-1.703,1.808 -2.555,8.134 -1.987,13.556c0.568,5.724 1.703,15.063 2.271,20.787l1.42,10.544l-18.739,-1.808c-17.887,-2.108 -23.282,0 -23.566,8.737c0,3.916 19.023,11.146 29.244,11.146l9.37,0l3.123,24.402c3.407,26.51 9.369,38.56 21.294,43.079c14.48,5.423 34.639,-6.929 32.935,-20.184c-1.135,-9.037 -9.085,-9.941 -18.455,-2.109l-7.95,6.327l-4.542,-6.025c-4.543,-6.025 -9.938,-40.067 -7.098,-45.188c0.851,-1.507 5.394,-3.314 9.937,-4.218c4.259,-0.904 8.802,-4.218 9.937,-6.929c2.839,-7.531 -3.975,-14.159 -12.776,-12.05c-7.382,1.506 -7.666,1.205 -9.654,-17.172c-2.271,-23.497 -7.098,-31.029 -14.764,-22.895Z" style="fill-rule:nonzero;"/><path d="M746.393,248.763c-1.266,2.287 7.591,89.213 9.869,96.933c0.759,2.002 3.795,3.431 6.832,2.86c4.555,-0.572 6.073,-3.432 7.592,-13.44c2.277,-14.868 9.616,-24.59 22.015,-29.165c10.881,-4.004 15.436,-7.721 15.436,-12.868c0,-10.008 -23.281,-6.862 -36.186,4.575l-6.326,5.719l-3.037,-23.447c-1.518,-13.153 -4.049,-26.02 -5.314,-28.594c-2.531,-5.433 -8.604,-6.862 -10.881,-2.573Z" style="fill-rule:nonzero;"/><path d="M622.419,255.449c-1.519,2.288 -3.543,20.588 -4.302,40.89c-2.025,40.889 -0,49.753 10.122,49.753c13.158,-0 22.774,-26.02 10.375,-28.022c-5.061,-0.858 -5.061,-2.288 -4.302,-29.166c0.759,-20.016 0.253,-30.023 -2.024,-32.883c-3.796,-5.433 -6.074,-5.433 -9.869,-0.572Z" style="fill-rule:nonzero;"/><path d="M695.834,261.74c-16.701,12.581 -25.558,29.452 -27.582,51.755c-1.013,13.439 -0.253,18.872 3.542,26.878c6.327,12.867 19.991,19.444 30.619,14.583c8.351,-4.003 15.681,-14.487 13.988,-24.079c-1.361,-7.712 -8.447,-4.981 -14.494,0.918c-7.744,7.556 -13.411,7.148 -16.954,0.286c-5.567,-12.295 4.951,-19.578 12.769,-25.848c10.43,-8.367 26.876,-21.466 29.407,-32.617c2.277,-10.294 -2.953,-21.884 -11.304,-21.884c-3.796,0 -12.905,4.575 -19.991,10.008Zm9.636,21.112c-4.927,6.143 -11.229,8.636 -12.624,8.739c-1.395,0.103 -0.934,-5.707 4.51,-10.493c5.777,-5.078 15.452,-7.397 8.114,1.754Z" style="fill-rule:nonzero;"/></g></svg>