<?xml version="1.0" encoding="UTF-8" standalone="no"?><!DOCTYPE svg PUBLIC "-//W3C//DTD SVG 1.1//EN" "http://www.w3.org/Graphics/SVG/1.1/DTD/svg11.dtd"><svg width="100%" height="100%" viewBox="0 0 166 180" version="1.1" xmlns="http://www.w3.org/2000/svg" xmlns:xlink="http://www.w3.org/1999/xlink" xml:space="preserve" xmlns:serif="http://www.serif.com/" style="fill-rule:evenodd;clip-rule:evenodd;stroke-linejoin:round;stroke-miterlimit:2;"><g id="doggie"><g id="layers"><path d="M111.238,41.81c0.74,0.087 1.441,-0.418 1.486,-1.487c0.047,-1.068 1.627,-8.176 2.184,-10.127c0.558,-1.95 1.655,-3.877 2.369,-4.784c0.97,-1.233 2.103,-2.233 2.242,-2.838c0.14,-0.603 -0.058,-1.203 -0.988,-1.25c-0.929,-0.046 -1.812,0.511 -2.88,1.579c-1.068,1.069 -2.491,3.358 -3.048,4.984c-0.558,1.625 -1.185,3.728 -1.881,7.304c-0.697,3.578 -0.877,4.528 -0.831,5.225c0.046,0.697 0.557,1.301 1.347,1.394Z" style="fill:#030404;fill-rule:nonzero;"/><path d="M115.371,41.522c-0.576,-0.052 -1.067,-0.704 -1.067,-2.411c0,-1.709 0.489,-3.064 1.111,-4.17c0.622,-1.105 1.244,-2.16 1.955,-2.411c0.71,-0.251 1.421,-0.201 1.511,0.352c0.088,0.552 -0.09,1.557 -0.712,2.511c-0.622,0.955 -1.294,2.401 -1.377,3.064c-0.056,0.448 0,1.558 -0.089,1.959c-0.088,0.402 -0.222,1.206 -1.332,1.106Z" style="fill:#030404;fill-rule:nonzero;"/><path d="M119.414,41.902c-0.232,0.024 -1.254,-0.278 -1.348,-0.835c-0.093,-0.558 -0.093,-1.533 -0,-2.23c0.094,-0.697 0.651,-1.626 1.162,-2.37c0.511,-0.743 1.347,-1.068 1.905,-0.882c0.557,0.186 0.65,1.393 0.139,2.415c-0.511,1.023 -0.558,2.323 -0.604,2.742c-0.046,0.417 -0.325,1.068 -1.254,1.16Z" style="fill:#030404;fill-rule:nonzero;"/><path d="M108.473,60.232c0.067,-0.94 0.617,-1.529 1.341,-1.583c0.432,-0.032 1.261,0.027 1.448,1.073c0.189,1.046 0.081,4.104 0.081,4.426c-0,0.322 -0.403,1.234 -1.288,1.342c-0.885,0.107 -1.502,-0.511 -1.609,-1.127c-0.108,-0.617 0,-3.756 0.027,-4.131Z" style="fill:#030404;fill-rule:nonzero;"/><path d="M116.413,59.346c-0.034,0.348 0.026,3.514 0.026,4.132c0,0.616 0.403,0.938 0.886,1.18c0.483,0.241 1.126,0.241 1.609,-0.188c0.482,-0.429 0.564,-0.966 0.51,-2.682c-0.054,-1.717 0.054,-2.415 -0.295,-2.978c-0.239,-0.387 -0.859,-0.671 -1.341,-0.617c-0.483,0.054 -1.315,0.322 -1.395,1.153Z" style="fill:#030404;fill-rule:nonzero;"/><path d="M146.253,58.1c-0.28,-3.173 -2.23,-5.25 -3.38,-5.25c-1.151,-0 -2.841,-0.154 -4.171,1.176c-0.575,0.576 -1.339,1.465 -1.339,1.465c0,0 -0.424,0.474 -0.858,1.345c-0.015,-1.677 -0.015,-3.441 0.025,-4.771c0.093,-3.108 0.277,-9.939 0.184,-12.215c-0.091,-2.277 -0.538,-5.378 -1.811,-6.429c-1.862,-1.539 -3.141,-0.48 -3.818,-0.111c-0.677,0.369 -1.937,1.328 -2.863,2.324c-0.738,0.794 -2.409,2.85 -3.233,5.433c-0.264,0.83 -0.428,2.813 -0.367,4.044c0.061,1.231 0.154,1.539 -0.03,1.754c-0.186,0.216 -1.616,0.199 -4.491,0.157c-2.309,-0.035 -4.059,-0.169 -7.187,-0.127c-4.695,0.063 -7.707,0.309 -7.707,0.216c0,-0.092 -0.123,-5.139 -0.585,-6.861c-0.461,-1.723 -1.846,-5.385 -3.385,-6.8c-1.538,-1.415 -2.861,-2.339 -3.999,-2.339c-1.139,0 -2.555,0.677 -3.262,2.37c-0.708,1.692 -1.846,3.907 -2.246,7.261c-0.401,3.353 -0.862,7.2 -0.708,11.723c0.154,4.523 0.8,10.369 1.015,14.492c0.216,4.123 0.677,8.308 1.015,9.847c0.339,1.538 0.831,3.322 1.201,4.615c0.369,1.292 0.844,1.856 0.585,1.822c-0.865,-0.114 -8.093,-0.192 -11.601,-0.192c-3.508,0 -16.923,0.062 -20.892,0.124c-3.969,0.061 -6.305,0.563 -10.305,0.563c-2.739,0 -7.835,0.231 -9.865,0.169c-2.032,-0.061 -5.044,0.47 -5.198,0.347c-0.154,-0.123 -0.002,-4.103 -3.072,-6.818c-1.386,-1.226 -2.223,-1.812 -3.683,-1.734c-2.195,0.117 -3.593,0.775 -5.162,3.268c-1.569,2.492 -2.007,5.559 -2.038,7.558c-0.031,2 0.123,4.954 0.861,7.077c0.739,2.124 1.631,3.385 2.216,4.369c0.584,0.985 0.892,1.17 0.892,1.446c-0,0.277 -1.046,3.17 -1.661,5.477c-0.616,2.308 -1.754,7.138 -2.123,9.293c-0.369,2.153 -1.231,7.446 -1.693,11.045c-0.461,3.601 -0.799,9.293 -1.107,11.97c-0.308,2.677 -0.585,3.846 -0.646,4.861c-0.062,1.016 -0.062,5.754 -0.062,6.924c0,1.169 0.831,3.876 1.6,5.691c0.769,1.816 2.277,3.231 3.323,3.724c1.046,0.492 2.277,0.246 3.292,-0.123c1.016,-0.37 2.683,-1.38 3.565,-2.985c0.956,-1.738 3.119,-6.226 5.404,-13.439c0.461,-1.457 3.006,-11.381 3.647,-13.546c0.304,-1.026 0.677,-2.091 1.077,-2.523c0.4,-0.43 0.708,-0.338 0.738,-0.03c0.031,0.307 -0.554,8.338 -0.554,9.169c0,0.83 -0.153,4.584 0.647,9.446c0.799,4.862 1.569,6.308 2.307,8.061c0.738,1.755 1.692,3.2 3.046,4.431c1.354,1.231 2.308,1.169 3.508,1.169c1.2,0 3.969,-2.153 4.984,-4.122c1.016,-1.97 2.739,-4.954 3.416,-8.308c0.677,-3.354 1.754,-9.016 1.907,-10.923c0.154,-1.908 1.201,-5.416 1.878,-7.292c0.676,-1.878 1.015,-2.493 1.169,-2.616c0.154,-0.123 0.759,-0.184 1.183,1.805c0.321,1.511 1.735,8.441 2.012,10.01c0.277,1.57 1.508,7.816 2.185,10.062c0.677,2.246 1.262,3.723 2.585,5.385c1.323,1.661 2.492,3.169 5.692,3.292c3.2,0.123 5.877,-3.508 7.046,-5.631c1.17,-2.123 2.523,-5.353 2.985,-8.584c0.462,-3.231 0.739,-5.847 0.739,-7.631c-0,-1.784 0.03,-3.077 0.123,-3.323c0.092,-0.246 0.554,0.554 0.769,2.338c0.215,1.785 1.704,7.28 2.443,9.372c0.738,2.093 1.434,5.057 4.019,8.536c2.257,3.039 3.445,4.276 4.83,5.077c1.385,0.8 2.952,1.469 4.558,1.046c1.201,-0.316 2.103,-1.012 3.518,-2.243c1.415,-1.231 2.835,-4.232 3.205,-6.755c0.368,-2.523 1.074,-6.848 0.612,-11.095c-0.461,-4.246 -1.722,-10.861 -2.214,-13.076c-0.493,-2.216 -2.106,-7.674 -4.2,-12.447c-0.376,-0.856 -1.765,-4.265 -2.094,-4.851c-0.328,-0.586 -1.16,-1.02 -2.045,-0.62c-0.885,0.401 -1.168,1.069 -0.962,1.937c0.207,0.868 1.669,3.738 1.968,4.458c0.297,0.719 1.547,3.8 1.886,4.815c0.339,1.016 1.231,3.446 1.846,6.493c0.615,3.045 1.569,6.676 2.154,10.861c0.584,4.185 0.308,6.092 0.185,8.8c-0.123,2.708 -0.339,4.739 -0.862,5.877c-0.523,1.138 -1.448,2.924 -2.841,3.829c-1.015,0.66 -1.736,0.477 -2.319,0.274c-1.688,-0.589 -3.642,-3.211 -4.672,-4.596c-1.893,-2.546 -4.954,-11.445 -5.415,-14.522c-0.462,-3.077 -0.862,-4.678 -1.601,-6.154c-0.738,-1.477 -1.037,-2.539 -1.745,-3.001c-0.707,-0.462 -1.793,-0.507 -2.439,-0.076c-0.646,0.431 -1.046,0.615 -1.477,2.4c-0.431,1.785 -0.4,3.938 -0.493,7.723c-0.091,3.784 -0.892,7.692 -1.445,9.538c-0.554,1.846 -2.216,5.323 -3.446,6.492c-1.231,1.17 -2.462,1.631 -3.323,1.354c-0.862,-0.277 -2.831,-1.784 -3.539,-3.661c-0.707,-1.877 -2.338,-7.6 -3.262,-13.631c-0.923,-6.03 -1.512,-7.456 -1.793,-8.538c-0.347,-1.334 -0.876,-4.745 -2.073,-5.163c-2.402,-0.837 -3.115,-0.542 -3.778,-0.287c-0.347,0.134 -0.89,0.642 -1.474,1.936c-0.631,1.398 -0.877,1.991 -1.37,3.806c-0.492,1.815 -1.723,5.692 -2.061,8.369c-0.339,2.677 -1.293,8.4 -1.97,10.954c-0.676,2.554 -1.784,5.077 -2.738,6.4c-0.954,1.323 -2.276,2.708 -3.2,2.523c-0.923,-0.185 -3.107,-3.785 -3.877,-7.169c-0.769,-3.385 -1.384,-8.769 -1.076,-13.016c0.307,-4.246 0.084,-8.483 -0.154,-9.507c-0.461,-1.975 -0.983,-2.558 -1.784,-2.897c-0.799,-0.338 -2.586,-0.365 -3.294,0.035c-0.707,0.4 -1.322,1.354 -1.846,2.893c-0.522,1.538 -3.716,14.304 -5.278,18.15c-0.718,1.769 -2.679,8.824 -4.528,10.98c-0.754,0.88 -2.009,1.177 -2.563,1.054c-0.554,-0.123 -1.846,-1.662 -2.215,-3.415c-0.369,-1.754 -0.8,-3.108 -0.677,-6.431c0.123,-3.323 0.154,-4.431 0.43,-6.338c0.277,-1.908 0.739,-5.231 0.862,-7.785c0.124,-2.554 0.677,-6.492 0.985,-9.692c0.308,-3.2 1.907,-9.969 2.184,-11.447c0.277,-1.476 2.216,-8.307 2.554,-9.753c0.339,-1.446 0.431,-2.154 0.246,-2.954c-0.184,-0.8 -0.831,-0.923 -1.261,-1.2c-0.431,-0.276 -1.785,-2.369 -2.123,-3.723c-0.338,-1.354 -0.769,-3.969 -0.647,-6.031c0.123,-2.061 0.419,-3.877 1.143,-5.046c0.801,-1.293 2.143,-2.364 2.704,-2.334c1.503,0.08 2.284,1.614 2.93,2.753c0.646,1.138 1.151,2.427 1.255,4.166c0.026,0.435 -0.37,1.877 0.061,2.707c0.431,0.831 1.231,1.139 1.938,1.047c0.708,-0.093 0.994,-0.391 1.13,-0.823c0.189,-0.598 0.182,-1.082 0.182,-1.205c0,-0.123 1.788,-0.5 4.07,-0.5c2.252,-0 7.418,0.005 9.08,0.036c1.662,0.03 5.507,-0.216 6.861,-0.277c1.355,-0.062 3.508,-0.308 7.877,-0.401c4.369,-0.092 12.241,-0.231 14.918,-0.201c2.677,0.031 11.014,-0.193 14.59,0.171c0.754,0.076 1.135,0.27 1.227,0.547c0.093,0.277 0.587,1.69 1.299,2.049c0.998,0.505 1.479,0.137 1.957,-0.683c0.589,-1.01 0.416,-1.179 -0.077,-2.749c-0.492,-1.569 -2.375,-5.964 -2.744,-8.334c-0.37,-2.368 -0.8,-5.754 -1.047,-9.108c-0.246,-3.353 -0.83,-10.584 -0.861,-12.153c-0.031,-1.569 -0.154,-7.508 -0.185,-9.077c-0.031,-1.569 0.031,-4.215 0.462,-6.154c0.431,-1.938 1.4,-4.634 1.952,-5.698c0.171,-0.33 0.633,-0.61 1.556,0.437c0.923,1.046 2.061,2.984 2.43,4.4c0.37,1.415 0.647,3.015 0.677,5.169c0.032,2.154 0,3.6 0.216,4.246c0.215,0.646 0.954,1.108 1.476,1.138c0.524,0.032 4.93,-0.135 6.13,-0.165c5.115,-0.127 10.055,-0.142 12.116,-0.112c2.062,0.032 4.185,0.247 4.678,0.186c0.492,-0.062 1.508,-0.585 1.569,-1.57c0.061,-0.984 0.011,-4.033 0.061,-4.677c0.295,-3.757 2.431,-5.784 2.862,-6.277c0.431,-0.492 0.954,-1.323 1.569,-1.323c0.615,0 0.892,0.831 0.892,1.631c0,0.8 0.032,11.046 0.032,12.431c-0,1.384 0.03,10.769 0.061,11.692c0.03,0.923 0.369,2.4 0.369,5.815c0,3.415 -0.092,7.416 -0.092,8.708c-0,1.292 -0.277,4.739 -0.277,5.507c-0,0.77 0.184,1.631 0.03,2.001c-0.153,0.369 -4.215,3.199 -5.845,4.061c-1.631,0.862 -4.708,2.677 -5.723,3.169c-1.016,0.493 -3.448,1.723 -4.678,2.123c-1.23,0.4 -5.854,2.897 -7.423,3.512c-1.569,0.616 -3.046,1.2 -3.754,1.477c-0.708,0.277 -4.573,2.203 -5.641,2.563c-1.277,0.431 -2.357,1.451 -1.451,2.721c0.908,1.27 2.697,0.769 3.838,0.158c1.176,-0.628 3.5,-1.843 5.223,-2.396c1.723,-0.554 3.978,-1.543 6.685,-2.896c2.708,-1.354 5.108,-2.246 6.431,-2.861c1.323,-0.616 2.739,-1.324 5.262,-2.893c2.523,-1.569 4.615,-2.616 6.399,-3.908c1.785,-1.292 3.477,-2.43 3.878,-3.2c0.4,-0.769 0.338,-1.446 0.246,-3.107c-0.093,-1.662 0.246,-6.062 0.246,-8.37c0,-2.307 0.061,-7.691 -0.092,-9.138c-0.148,-1.386 -0.322,-2.265 -0.364,-3.392c0.255,0.443 0.553,0.884 0.966,1.356c0.599,0.684 2.078,1.233 3.081,1.22c1.575,-0.019 2.132,-0.235 2.877,-0.72c1.001,-0.651 1.653,-1.725 2.228,-2.875c0.576,-1.151 0.611,-1.659 0.504,-2.877Z" style="fill:#030404;fill-rule:nonzero;"/></g></g></svg>